<?xml version="1.0"?>
<svg xmlns="http://www.w3.org/2000/svg" width="1000" height="1000" viewBox="-500 -500 1000 1000">
    <path d="M-440.20,-539.68L-878.79,-673.93L-925.60,-666.48L-497.56,-622.15Z" fill="rgba(210,125,54,0.52)"/>
    <path d="M-268.77,-539.68L-707.36,-673.93L-754.18,-666.48L-326.13,-622.15Z" fill="rgba(198,210,54,0.52)"/>
    <path d="M-97.34,-539.68L-535.93,-673.93L-582.75,-666.48L-154.70,-622.15Z" fill="rgba(100,210,54,0.52)"/>
    <path d="M74.09,-539.68L-364.50,-673.93L-411.32,-666.48L16.72,-622.15Z" fill="rgba(54,210,106,0.52)"/>
    <path d="M245.52,-539.68L-193.07,-673.93L-239.89,-666.48L188.15,-622.15Z" fill="rgba(54,210,204,0.52)"/>
    <path d="M416.94,-539.68L-21.65,-673.93L-68.46,-666.48L359.58,-622.15Z" fill="rgba(54,119,210,0.52)"/>
    <path d="M588.37,-539.68L149.78,-673.93L102.97,-666.48L531.01,-622.15Z" fill="rgba(86,54,210,0.52)"/>
    <path d="M759.80,-539.68L321.21,-673.93L274.40,-666.48L702.44,-622.15Z" fill="rgba(210,125,54,0.52)"/>
    <path d="M-440.20,-487.51L-878.79,-621.76L-925.60,-614.30L-497.56,-569.98Z" fill="rgba(198,210,54,0.52)"/>
    <path d="M-268.77,-487.51L-707.36,-621.76L-754.18,-614.30L-326.13,-569.98Z" fill="rgba(100,210,54,0.52)"/>
    <path d="M-97.34,-487.51L-535.93,-621.76L-582.75,-614.30L-154.70,-569.98Z" fill="rgba(54,210,106,0.52)"/>
    <path d="M74.09,-487.51L-364.50,-621.76L-411.32,-614.30L16.72,-569.98Z" fill="rgba(54,210,204,0.52)"/>
    <path d="M245.52,-487.51L-193.07,-621.76L-239.89,-614.30L188.15,-569.98Z" fill="rgba(54,119,210,0.52)"/>
    <path d="M416.94,-487.51L-21.65,-621.76L-68.46,-614.30L359.58,-569.98Z" fill="rgba(86,54,210,0.52)"/>
    <path d="M588.37,-487.51L149.78,-621.76L102.97,-614.30L531.01,-569.98Z" fill="rgba(210,125,54,0.52)"/>
    <path d="M759.80,-487.51L321.21,-621.76L274.40,-614.30L702.44,-569.98Z" fill="rgba(198,210,54,0.52)"/>
    <path d="M-440.20,-435.33L-878.79,-569.58L-925.60,-562.13L-497.56,-517.80Z" fill="rgba(100,210,54,0.52)"/>
    <path d="M-268.77,-435.33L-707.36,-569.58L-754.18,-562.13L-326.13,-517.80Z" fill="rgba(54,210,106,0.52)"/>
    <path d="M-97.34,-435.33L-535.93,-569.58L-582.75,-562.13L-154.70,-517.80Z" fill="rgba(54,210,204,0.52)"/>
    <path d="M74.09,-435.33L-364.50,-569.58L-411.32,-562.13L16.72,-517.80Z" fill="rgba(54,119,210,0.52)"/>
    <path d="M245.52,-435.33L-193.07,-569.58L-239.89,-562.13L188.15,-517.80Z" fill="rgba(86,54,210,0.52)"/>
    <path d="M416.94,-435.33L-21.65,-569.58L-68.46,-562.13L359.58,-517.80Z" fill="rgba(210,125,54,0.52)"/>
    <path d="M588.37,-435.33L149.78,-569.58L102.97,-562.13L531.01,-517.80Z" fill="rgba(198,210,54,0.52)"/>
    <path d="M759.80,-435.33L321.21,-569.58L274.40,-562.13L702.44,-517.80Z" fill="rgba(100,210,54,0.52)"/>
    <path d="M-440.20,-383.16L-878.79,-517.41L-925.60,-509.95L-497.56,-465.63Z" fill="rgba(54,210,106,0.52)"/>
    <path d="M-268.77,-383.16L-707.36,-517.41L-754.18,-509.95L-326.13,-465.63Z" fill="rgba(54,210,204,0.52)"/>
    <path d="M-97.34,-383.16L-535.93,-517.41L-582.75,-509.95L-154.70,-465.63Z" fill="rgba(54,119,210,0.52)"/>
    <path d="M74.09,-383.16L-364.50,-517.41L-411.32,-509.95L16.72,-465.63Z" fill="rgba(86,54,210,0.52)"/>
    <path d="M245.52,-383.16L-193.07,-517.41L-239.89,-509.95L188.15,-465.63Z" fill="rgba(210,125,54,0.52)"/>
    <path d="M416.94,-383.16L-21.65,-517.41L-68.46,-509.95L359.58,-465.63Z" fill="rgba(198,210,54,0.52)"/>
    <path d="M588.37,-383.16L149.78,-517.41L102.97,-509.95L531.01,-465.63Z" fill="rgba(100,210,54,0.52)"/>
    <path d="M759.80,-383.16L321.21,-517.41L274.40,-509.95L702.44,-465.63Z" fill="rgba(54,210,106,0.52)"/>
    <path d="M-440.20,-330.99L-878.79,-465.24L-925.60,-457.78L-497.56,-413.45Z" fill="rgba(54,210,204,0.52)"/>
    <path d="M-268.77,-330.99L-707.36,-465.24L-754.18,-457.78L-326.13,-413.45Z" fill="rgba(54,119,210,0.52)"/>
    <path d="M-97.34,-330.99L-535.93,-465.24L-582.75,-457.78L-154.70,-413.45Z" fill="rgba(86,54,210,0.52)"/>
    <path d="M74.09,-330.99L-364.50,-465.24L-411.32,-457.78L16.72,-413.45Z" fill="rgba(210,125,54,0.52)"/>
    <path d="M245.52,-330.99L-193.07,-465.24L-239.89,-457.78L188.15,-413.45Z" fill="rgba(198,210,54,0.52)"/>
    <path d="M416.94,-330.99L-21.65,-465.24L-68.46,-457.78L359.58,-413.45Z" fill="rgba(100,210,54,0.52)"/>
    <path d="M588.37,-330.99L149.78,-465.24L102.97,-457.78L531.01,-413.45Z" fill="rgba(54,210,106,0.52)"/>
    <path d="M759.80,-330.99L321.21,-465.24L274.40,-457.78L702.44,-413.45Z" fill="rgba(54,210,204,0.52)"/>
    <path d="M-440.20,-278.81L-878.79,-413.06L-925.60,-405.61L-497.56,-361.28Z" fill="rgba(54,119,210,0.52)"/>
    <path d="M-268.77,-278.81L-707.36,-413.06L-754.18,-405.61L-326.13,-361.28Z" fill="rgba(86,54,210,0.52)"/>
    <path d="M-97.34,-278.81L-535.93,-413.06L-582.75,-405.61L-154.70,-361.28Z" fill="rgba(210,125,54,0.52)"/>
    <path d="M74.09,-278.81L-364.50,-413.06L-411.32,-405.61L16.72,-361.28Z" fill="rgba(198,210,54,0.52)"/>
    <path d="M245.52,-278.81L-193.07,-413.06L-239.89,-405.61L188.15,-361.28Z" fill="rgba(100,210,54,0.52)"/>
    <path d="M416.94,-278.81L-21.65,-413.06L-68.46,-405.61L359.58,-361.28Z" fill="rgba(54,210,106,0.52)"/>
    <path d="M588.37,-278.81L149.78,-413.06L102.97,-405.61L531.01,-361.28Z" fill="rgba(54,210,204,0.52)"/>
    <path d="M759.80,-278.81L321.21,-413.06L274.40,-405.61L702.44,-361.28Z" fill="rgba(54,119,210,0.52)"/>
    <path d="M-440.20,-226.64L-878.79,-360.89L-925.60,-353.43L-497.56,-309.11Z" fill="rgba(86,54,210,0.52)"/>
    <path d="M-268.77,-226.64L-707.36,-360.89L-754.18,-353.43L-326.13,-309.11Z" fill="rgba(210,125,54,0.52)"/>
    <path d="M-97.34,-226.64L-535.93,-360.89L-582.75,-353.43L-154.70,-309.11Z" fill="rgba(198,210,54,0.52)"/>
    <path d="M74.09,-226.64L-364.50,-360.89L-411.32,-353.43L16.72,-309.11Z" fill="rgba(100,210,54,0.52)"/>
    <path d="M245.52,-226.64L-193.07,-360.89L-239.89,-353.43L188.15,-309.11Z" fill="rgba(54,210,106,0.52)"/>
    <path d="M416.94,-226.64L-21.65,-360.89L-68.46,-353.43L359.58,-309.11Z" fill="rgba(54,210,204,0.52)"/>
    <path d="M588.37,-226.64L149.78,-360.89L102.97,-353.43L531.01,-309.11Z" fill="rgba(54,119,210,0.52)"/>
    <path d="M759.80,-226.64L321.21,-360.89L274.40,-353.43L702.44,-309.11Z" fill="rgba(86,54,210,0.52)"/>
    <path d="M-440.20,-174.46L-878.79,-308.71L-925.60,-301.26L-497.56,-256.93Z" fill="rgba(210,125,54,0.52)"/>
    <path d="M-268.77,-174.46L-707.36,-308.71L-754.18,-301.26L-326.13,-256.93Z" fill="rgba(198,210,54,0.52)"/>
    <path d="M-97.34,-174.46L-535.93,-308.71L-582.75,-301.26L-154.70,-256.93Z" fill="rgba(100,210,54,0.52)"/>
    <path d="M74.09,-174.46L-364.50,-308.71L-411.32,-301.26L16.72,-256.93Z" fill="rgba(54,210,106,0.52)"/>
    <path d="M245.52,-174.46L-193.07,-308.71L-239.89,-301.26L188.15,-256.93Z" fill="rgba(54,210,204,0.52)"/>
    <path d="M416.94,-174.46L-21.65,-308.71L-68.46,-301.26L359.58,-256.93Z" fill="rgba(54,119,210,0.52)"/>
    <path d="M588.37,-174.46L149.78,-308.71L102.97,-301.26L531.01,-256.93Z" fill="rgba(86,54,210,0.52)"/>
    <path d="M759.80,-174.46L321.21,-308.71L274.40,-301.26L702.44,-256.93Z" fill="rgba(210,125,54,0.52)"/>
    <path d="M-440.20,-122.29L-878.79,-256.54L-925.60,-249.08L-497.56,-204.76Z" fill="rgba(198,210,54,0.52)"/>
    <path d="M-268.77,-122.29L-707.36,-256.54L-754.18,-249.08L-326.13,-204.76Z" fill="rgba(100,210,54,0.52)"/>
    <path d="M-97.34,-122.29L-535.93,-256.54L-582.75,-249.08L-154.70,-204.76Z" fill="rgba(54,210,106,0.52)"/>
    <path d="M74.09,-122.29L-364.50,-256.54L-411.32,-249.08L16.72,-204.76Z" fill="rgba(54,210,204,0.52)"/>
    <path d="M245.52,-122.29L-193.07,-256.54L-239.89,-249.08L188.15,-204.76Z" fill="rgba(54,119,210,0.52)"/>
    <path d="M416.94,-122.29L-21.65,-256.54L-68.46,-249.08L359.58,-204.76Z" fill="rgba(86,54,210,0.52)"/>
    <path d="M588.37,-122.29L149.78,-256.54L102.97,-249.08L531.01,-204.76Z" fill="rgba(210,125,54,0.52)"/>
    <path d="M759.80,-122.29L321.21,-256.54L274.40,-249.08L702.44,-204.76Z" fill="rgba(198,210,54,0.52)"/>
    <path d="M-440.20,-70.12L-878.79,-204.37L-925.60,-196.91L-497.56,-152.58Z" fill="rgba(100,210,54,0.52)"/>
    <path d="M-268.77,-70.12L-707.36,-204.37L-754.18,-196.91L-326.13,-152.58Z" fill="rgba(54,210,106,0.52)"/>
    <path d="M-97.34,-70.12L-535.93,-204.37L-582.75,-196.91L-154.70,-152.58Z" fill="rgba(54,210,204,0.52)"/>
    <path d="M74.09,-70.12L-364.50,-204.37L-411.32,-196.91L16.72,-152.58Z" fill="rgba(54,119,210,0.52)"/>
    <path d="M245.52,-70.12L-193.07,-204.37L-239.89,-196.91L188.15,-152.58Z" fill="rgba(86,54,210,0.52)"/>
    <path d="M416.94,-70.12L-21.65,-204.37L-68.46,-196.91L359.58,-152.58Z" fill="rgba(210,125,54,0.52)"/>
    <path d="M588.37,-70.12L149.78,-204.37L102.97,-196.91L531.01,-152.58Z" fill="rgba(198,210,54,0.52)"/>
    <path d="M759.80,-70.12L321.21,-204.37L274.40,-196.91L702.44,-152.58Z" fill="rgba(100,210,54,0.52)"/>
    <path d="M-440.20,-17.94L-878.79,-152.19L-925.60,-144.74L-497.56,-100.41Z" fill="rgba(54,210,106,0.52)"/>
    <path d="M-268.77,-17.94L-707.36,-152.19L-754.18,-144.74L-326.13,-100.41Z" fill="rgba(54,210,204,0.52)"/>
    <path d="M-97.34,-17.94L-535.93,-152.19L-582.75,-144.74L-154.70,-100.41Z" fill="rgba(54,119,210,0.52)"/>
    <path d="M74.09,-17.94L-364.50,-152.19L-411.32,-144.74L16.72,-100.41Z" fill="rgba(86,54,210,0.52)"/>
    <path d="M245.52,-17.94L-193.07,-152.19L-239.89,-144.74L188.15,-100.41Z" fill="rgba(210,125,54,0.52)"/>
    <path d="M416.94,-17.94L-21.65,-152.19L-68.46,-144.74L359.58,-100.41Z" fill="rgba(198,210,54,0.52)"/>
    <path d="M588.37,-17.94L149.78,-152.19L102.97,-144.74L531.01,-100.41Z" fill="rgba(100,210,54,0.52)"/>
    <path d="M759.80,-17.94L321.21,-152.19L274.40,-144.74L702.44,-100.41Z" fill="rgba(54,210,106,0.52)"/>
    <path d="M-440.20,34.23L-878.79,-100.02L-925.60,-92.56L-497.56,-48.24Z" fill="rgba(54,210,204,0.52)"/>
    <path d="M-268.77,34.23L-707.36,-100.02L-754.18,-92.56L-326.13,-48.24Z" fill="rgba(54,119,210,0.52)"/>
    <path d="M-97.34,34.23L-535.93,-100.02L-582.75,-92.56L-154.70,-48.24Z" fill="rgba(86,54,210,0.52)"/>
    <path d="M74.09,34.23L-364.50,-100.02L-411.32,-92.56L16.72,-48.24Z" fill="rgba(210,125,54,0.52)"/>
    <path d="M245.52,34.23L-193.07,-100.02L-239.89,-92.56L188.15,-48.24Z" fill="rgba(198,210,54,0.52)"/>
    <path d="M416.94,34.23L-21.65,-100.02L-68.46,-92.56L359.58,-48.24Z" fill="rgba(100,210,54,0.52)"/>
    <path d="M588.37,34.23L149.78,-100.02L102.97,-92.56L531.01,-48.24Z" fill="rgba(54,210,106,0.52)"/>
    <path d="M759.80,34.23L321.21,-100.02L274.40,-92.56L702.44,-48.24Z" fill="rgba(54,210,204,0.52)"/>
    <path d="M-440.20,86.40L-878.79,-47.85L-925.60,-40.39L-497.56,3.94Z" fill="rgba(54,119,210,0.52)"/>
    <path d="M-268.77,86.40L-707.36,-47.85L-754.18,-40.39L-326.13,3.94Z" fill="rgba(86,54,210,0.52)"/>
    <path d="M-97.34,86.40L-535.93,-47.85L-582.75,-40.39L-154.70,3.94Z" fill="rgba(210,125,54,0.52)"/>
    <path d="M74.09,86.40L-364.50,-47.85L-411.32,-40.39L16.72,3.94Z" fill="rgba(198,210,54,0.52)"/>
    <path d="M245.52,86.40L-193.07,-47.85L-239.89,-40.39L188.15,3.94Z" fill="rgba(100,210,54,0.52)"/>
    <path d="M416.94,86.40L-21.65,-47.85L-68.46,-40.39L359.58,3.94Z" fill="rgba(54,210,106,0.52)"/>
    <path d="M588.37,86.40L149.78,-47.85L102.97,-40.39L531.01,3.94Z" fill="rgba(54,210,204,0.52)"/>
    <path d="M759.80,86.40L321.21,-47.85L274.40,-40.39L702.44,3.94Z" fill="rgba(54,119,210,0.52)"/>
    <path d="M-440.20,138.58L-878.79,4.33L-925.60,11.79L-497.56,56.11Z" fill="rgba(86,54,210,0.52)"/>
    <path d="M-268.77,138.58L-707.36,4.33L-754.18,11.79L-326.13,56.11Z" fill="rgba(210,125,54,0.52)"/>
    <path d="M-97.34,138.58L-535.93,4.33L-582.75,11.79L-154.70,56.11Z" fill="rgba(198,210,54,0.52)"/>
    <path d="M74.09,138.58L-364.50,4.33L-411.32,11.79L16.72,56.11Z" fill="rgba(100,210,54,0.52)"/>
    <path d="M245.52,138.58L-193.07,4.33L-239.89,11.79L188.15,56.11Z" fill="rgba(54,210,106,0.52)"/>
    <path d="M416.94,138.58L-21.65,4.33L-68.46,11.79L359.58,56.11Z" fill="rgba(54,210,204,0.52)"/>
    <path d="M588.37,138.58L149.78,4.33L102.97,11.79L531.01,56.11Z" fill="rgba(54,119,210,0.52)"/>
    <path d="M759.80,138.58L321.21,4.33L274.40,11.79L702.44,56.11Z" fill="rgba(86,54,210,0.52)"/>
    <path d="M-440.20,190.75L-878.79,56.50L-925.60,63.96L-497.56,108.28Z" fill="rgba(210,125,54,0.52)"/>
    <path d="M-268.77,190.75L-707.36,56.50L-754.18,63.96L-326.13,108.28Z" fill="rgba(198,210,54,0.52)"/>
    <path d="M-97.34,190.75L-535.93,56.50L-582.75,63.96L-154.70,108.28Z" fill="rgba(100,210,54,0.52)"/>
    <path d="M74.09,190.75L-364.50,56.50L-411.32,63.96L16.72,108.28Z" fill="rgba(54,210,106,0.52)"/>
    <path d="M245.52,190.75L-193.07,56.50L-239.89,63.96L188.15,108.28Z" fill="rgba(54,210,204,0.52)"/>
    <path d="M416.94,190.75L-21.65,56.50L-68.46,63.96L359.58,108.28Z" fill="rgba(54,119,210,0.52)"/>
    <path d="M588.37,190.75L149.78,56.50L102.97,63.96L531.01,108.28Z" fill="rgba(86,54,210,0.52)"/>
    <path d="M759.80,190.75L321.21,56.50L274.40,63.96L702.44,108.28Z" fill="rgba(210,125,54,0.52)"/>
    <path d="M-440.20,242.93L-878.79,108.68L-925.60,116.13L-497.56,160.46Z" fill="rgba(198,210,54,0.52)"/>
    <path d="M-268.77,242.93L-707.36,108.68L-754.18,116.13L-326.13,160.46Z" fill="rgba(100,210,54,0.52)"/>
    <path d="M-97.34,242.93L-535.93,108.68L-582.75,116.13L-154.70,160.46Z" fill="rgba(54,210,106,0.52)"/>
    <path d="M74.09,242.93L-364.50,108.68L-411.32,116.13L16.72,160.46Z" fill="rgba(54,210,204,0.52)"/>
    <path d="M245.52,242.93L-193.07,108.68L-239.89,116.13L188.15,160.46Z" fill="rgba(54,119,210,0.52)"/>
    <path d="M416.94,242.93L-21.65,108.68L-68.46,116.13L359.58,160.46Z" fill="rgba(86,54,210,0.52)"/>
    <path d="M588.37,242.93L149.78,108.68L102.97,116.13L531.01,160.46Z" fill="rgba(210,125,54,0.52)"/>
    <path d="M759.80,242.93L321.21,108.68L274.40,116.13L702.44,160.46Z" fill="rgba(198,210,54,0.52)"/>
    <path d="M-440.20,295.10L-878.79,160.85L-925.60,168.31L-497.56,212.63Z" fill="rgba(100,210,54,0.52)"/>
    <path d="M-268.77,295.10L-707.36,160.85L-754.18,168.31L-326.13,212.63Z" fill="rgba(54,210,106,0.52)"/>
    <path d="M-97.34,295.10L-535.93,160.85L-582.75,168.31L-154.70,212.63Z" fill="rgba(54,210,204,0.52)"/>
    <path d="M74.09,295.10L-364.50,160.85L-411.32,168.31L16.72,212.63Z" fill="rgba(54,119,210,0.52)"/>
    <path d="M245.52,295.10L-193.07,160.85L-239.89,168.31L188.15,212.63Z" fill="rgba(86,54,210,0.52)"/>
    <path d="M416.94,295.10L-21.65,160.85L-68.46,168.31L359.58,212.63Z" fill="rgba(210,125,54,0.52)"/>
    <path d="M588.37,295.10L149.78,160.85L102.97,168.31L531.01,212.63Z" fill="rgba(198,210,54,0.52)"/>
    <path d="M759.80,295.10L321.21,160.85L274.40,168.31L702.44,212.63Z" fill="rgba(100,210,54,0.52)"/>
    <path d="M-440.20,347.27L-878.79,213.02L-925.60,220.48L-497.56,264.81Z" fill="rgba(54,210,106,0.52)"/>
    <path d="M-268.77,347.27L-707.36,213.02L-754.18,220.48L-326.13,264.81Z" fill="rgba(54,210,204,0.52)"/>
    <path d="M-97.34,347.27L-535.93,213.02L-582.75,220.48L-154.70,264.81Z" fill="rgba(54,119,210,0.52)"/>
    <path d="M74.09,347.27L-364.50,213.02L-411.32,220.48L16.72,264.81Z" fill="rgba(86,54,210,0.52)"/>
    <path d="M245.52,347.27L-193.07,213.02L-239.89,220.48L188.15,264.81Z" fill="rgba(210,125,54,0.52)"/>
    <path d="M416.94,347.27L-21.65,213.02L-68.46,220.48L359.58,264.81Z" fill="rgba(198,210,54,0.52)"/>
    <path d="M588.37,347.27L149.78,213.02L102.97,220.48L531.01,264.81Z" fill="rgba(100,210,54,0.52)"/>
    <path d="M759.80,347.27L321.21,213.02L274.40,220.48L702.44,264.81Z" fill="rgba(54,210,106,0.52)"/>
    <path d="M-440.20,399.45L-878.79,265.20L-925.60,272.65L-497.56,316.98Z" fill="rgba(54,210,204,0.52)"/>
    <path d="M-268.77,399.45L-707.36,265.20L-754.18,272.65L-326.13,316.98Z" fill="rgba(54,119,210,0.52)"/>
    <path d="M-97.34,399.45L-535.93,265.20L-582.75,272.65L-154.70,316.98Z" fill="rgba(86,54,210,0.52)"/>
    <path d="M74.09,399.45L-364.50,265.20L-411.32,272.65L16.72,316.98Z" fill="rgba(210,125,54,0.52)"/>
    <path d="M245.52,399.45L-193.07,265.20L-239.89,272.65L188.15,316.98Z" fill="rgba(198,210,54,0.52)"/>
    <path d="M416.94,399.45L-21.65,265.20L-68.46,272.65L359.58,316.98Z" fill="rgba(100,210,54,0.52)"/>
    <path d="M588.37,399.45L149.78,265.20L102.97,272.65L531.01,316.98Z" fill="rgba(54,210,106,0.52)"/>
    <path d="M759.80,399.45L321.21,265.20L274.40,272.65L702.44,316.98Z" fill="rgba(54,210,204,0.52)"/>
    <path d="M-440.20,451.62L-878.79,317.37L-925.60,324.83L-497.56,369.15Z" fill="rgba(54,119,210,0.52)"/>
    <path d="M-268.77,451.62L-707.36,317.37L-754.18,324.83L-326.13,369.15Z" fill="rgba(86,54,210,0.52)"/>
    <path d="M-97.34,451.62L-535.93,317.37L-582.75,324.83L-154.70,369.15Z" fill="rgba(210,125,54,0.52)"/>
    <path d="M74.09,451.62L-364.50,317.37L-411.32,324.83L16.72,369.15Z" fill="rgba(198,210,54,0.52)"/>
    <path d="M245.52,451.62L-193.07,317.37L-239.89,324.83L188.15,369.15Z" fill="rgba(100,210,54,0.52)"/>
    <path d="M416.94,451.62L-21.65,317.37L-68.46,324.83L359.58,369.15Z" fill="rgba(54,210,106,0.52)"/>
    <path d="M588.37,451.62L149.78,317.37L102.97,324.83L531.01,369.15Z" fill="rgba(54,210,204,0.52)"/>
    <path d="M759.80,451.62L321.21,317.37L274.40,324.83L702.44,369.15Z" fill="rgba(54,119,210,0.52)"/>
    <path d="M-440.20,503.80L-878.79,369.55L-925.60,377.00L-497.56,421.33Z" fill="rgba(86,54,210,0.52)"/>
    <path d="M-268.77,503.80L-707.36,369.55L-754.18,377.00L-326.13,421.33Z" fill="rgba(210,125,54,0.52)"/>
    <path d="M-97.34,503.80L-535.93,369.55L-582.75,377.00L-154.70,421.33Z" fill="rgba(198,210,54,0.52)"/>
    <path d="M74.09,503.80L-364.50,369.55L-411.32,377.00L16.72,421.33Z" fill="rgba(100,210,54,0.52)"/>
    <path d="M245.52,503.80L-193.07,369.55L-239.89,377.00L188.15,421.33Z" fill="rgba(54,210,106,0.52)"/>
    <path d="M416.94,503.80L-21.65,369.55L-68.46,377.00L359.58,421.33Z" fill="rgba(54,210,204,0.52)"/>
    <path d="M588.37,503.80L149.78,369.55L102.97,377.00L531.01,421.33Z" fill="rgba(54,119,210,0.52)"/>
    <path d="M759.80,503.80L321.21,369.55L274.40,377.00L702.44,421.33Z" fill="rgba(86,54,210,0.52)"/>
    <path d="M-440.20,555.97L-878.79,421.72L-925.60,429.18L-497.56,473.50Z" fill="rgba(210,125,54,0.52)"/>
    <path d="M-268.77,555.97L-707.36,421.72L-754.18,429.18L-326.13,473.50Z" fill="rgba(198,210,54,0.52)"/>
    <path d="M-97.34,555.97L-535.93,421.72L-582.75,429.18L-154.70,473.50Z" fill="rgba(100,210,54,0.52)"/>
    <path d="M74.09,555.97L-364.50,421.72L-411.32,429.18L16.72,473.50Z" fill="rgba(54,210,106,0.52)"/>
    <path d="M245.52,555.97L-193.07,421.72L-239.89,429.18L188.15,473.50Z" fill="rgba(54,210,204,0.52)"/>
    <path d="M416.94,555.97L-21.65,421.72L-68.46,429.18L359.58,473.50Z" fill="rgba(54,119,210,0.52)"/>
    <path d="M588.37,555.97L149.78,421.72L102.97,429.18L531.01,473.50Z" fill="rgba(86,54,210,0.52)"/>
    <path d="M759.80,555.97L321.21,421.72L274.40,429.18L702.44,473.50Z" fill="rgba(210,125,54,0.52)"/>
    <path d="M-440.20,608.14L-878.79,473.89L-925.60,481.35L-497.56,525.68Z" fill="rgba(198,210,54,0.52)"/>
    <path d="M-268.77,608.14L-707.36,473.89L-754.18,481.35L-326.13,525.68Z" fill="rgba(100,210,54,0.52)"/>
    <path d="M-97.34,608.14L-535.93,473.89L-582.75,481.35L-154.70,525.68Z" fill="rgba(54,210,106,0.52)"/>
    <path d="M74.09,608.14L-364.50,473.89L-411.32,481.35L16.72,525.68Z" fill="rgba(54,210,204,0.52)"/>
    <path d="M245.52,608.14L-193.07,473.89L-239.89,481.35L188.15,525.68Z" fill="rgba(54,119,210,0.52)"/>
    <path d="M416.94,608.14L-21.65,473.89L-68.46,481.35L359.58,525.68Z" fill="rgba(86,54,210,0.52)"/>
    <path d="M588.37,608.14L149.78,473.89L102.97,481.35L531.01,525.68Z" fill="rgba(210,125,54,0.52)"/>
    <path d="M759.80,608.14L321.21,473.89L274.40,481.35L702.44,525.68Z" fill="rgba(198,210,54,0.52)"/>
    <path d="M-440.20,660.32L-878.79,526.07L-925.60,533.52L-497.56,577.85Z" fill="rgba(100,210,54,0.52)"/>
    <path d="M-268.77,660.32L-707.36,526.07L-754.18,533.52L-326.13,577.85Z" fill="rgba(54,210,106,0.52)"/>
    <path d="M-97.34,660.32L-535.93,526.07L-582.75,533.52L-154.70,577.85Z" fill="rgba(54,210,204,0.52)"/>
    <path d="M74.09,660.32L-364.50,526.07L-411.32,533.52L16.72,577.85Z" fill="rgba(54,119,210,0.52)"/>
    <path d="M245.52,660.32L-193.07,526.07L-239.89,533.52L188.15,577.85Z" fill="rgba(86,54,210,0.52)"/>
    <path d="M416.94,660.32L-21.65,526.07L-68.46,533.52L359.58,577.85Z" fill="rgba(210,125,54,0.52)"/>
    <path d="M588.37,660.32L149.78,526.07L102.97,533.52L531.01,577.85Z" fill="rgba(198,210,54,0.52)"/>
    <path d="M759.80,660.32L321.21,526.07L274.40,533.52L702.44,577.85Z" fill="rgba(100,210,54,0.52)"/>
</svg>